<svg width="100%" viewBox="18 18 72 72" role="img" xmlns="http://www.w3.org/2000/svg">
  <title>Sharesonic</title>
  <desc>Sharesonic app icon: a play triangle inside a circular waveform ring, on a violet to blue gradient</desc>
  <defs>
    <linearGradient id="bg" gradientUnits="userSpaceOnUse" x1="18" y1="18" x2="90" y2="90">
      <stop offset="0" stop-color="#7c3aed"/>
      <stop offset="1" stop-color="#2563eb"/>
    </linearGradient>
    <radialGradient id="hl" gradientUnits="userSpaceOnUse" cx="40" cy="30" r="46">
      <stop offset="0" stop-color="#fff" stop-opacity="0.18"/>
      <stop offset="1" stop-color="#fff" stop-opacity="0"/>
    </radialGradient>
    <clipPath id="shape">
      <rect x="18" y="18" width="72" height="72" rx="17"/>
    </clipPath>
  </defs>
  <g clip-path="url(#shape)">
    <rect x="18" y="18" width="72" height="72" fill="url(#bg)"/>
    <rect x="18" y="18" width="72" height="72" fill="url(#hl)"/>
  </g>
  <g stroke="#fff" stroke-width="2.4" stroke-linecap="round">
    <line x1="54" y1="33.5" x2="54" y2="24.5" stroke-opacity="0.86"/>
    <line x1="58" y1="33.89" x2="59.95" y2="24.09" stroke-opacity="0.92"/>
    <line x1="61.85" y1="35.06" x2="64.91" y2="27.67" stroke-opacity="0.8"/>
    <line x1="65.39" y1="36.95" x2="69.83" y2="30.3" stroke-opacity="0.8"/>
    <line x1="68.5" y1="39.5" x2="74.86" y2="33.14" stroke-opacity="0.86"/>
    <line x1="71.05" y1="42.61" x2="76.03" y2="39.28" stroke-opacity="0.67"/>
    <line x1="72.94" y1="46.15" x2="75.9" y2="44.93" stroke-opacity="0.5"/>
    <line x1="74.11" y1="50" x2="77.24" y2="49.38" stroke-opacity="0.5"/>
    <line x1="74.5" y1="54" x2="79.5" y2="54" stroke-opacity="0.61"/>
    <line x1="74.11" y1="58" x2="79.99" y2="59.17" stroke-opacity="0.67"/>
    <line x1="72.94" y1="61.85" x2="78.48" y2="64.14" stroke-opacity="0.67"/>
    <line x1="71.05" y1="65.39" x2="77.7" y2="69.83" stroke-opacity="0.8"/>
    <line x1="68.5" y1="68.5" x2="76.27" y2="76.27" stroke-opacity="0.98"/>
    <line x1="65.39" y1="71.05" x2="70.94" y2="79.36" stroke-opacity="0.92"/>
    <line x1="61.85" y1="72.94" x2="64.52" y2="79.41" stroke-opacity="0.73"/>
    <line x1="58" y1="74.11" x2="59.17" y2="79.99" stroke-opacity="0.67"/>
    <line x1="54" y1="74.5" x2="54" y2="81.5" stroke-opacity="0.73"/>
    <line x1="50" y1="74.11" x2="49.03" y2="79.01" stroke-opacity="0.61"/>
    <line x1="46.15" y1="72.94" x2="44.93" y2="75.9" stroke-opacity="0.5"/>
    <line x1="42.61" y1="71.05" x2="40.39" y2="74.37" stroke-opacity="0.55"/>
    <line x1="39.5" y1="68.5" x2="34.55" y2="73.45" stroke-opacity="0.73"/>
    <line x1="36.95" y1="65.39" x2="30.3" y2="69.83" stroke-opacity="0.8"/>
    <line x1="35.06" y1="61.85" x2="28.59" y2="64.52" stroke-opacity="0.73"/>
    <line x1="33.89" y1="58" x2="25.07" y2="59.76" stroke-opacity="0.86"/>
    <line x1="33.5" y1="54" x2="22.5" y2="54" stroke-opacity="0.98"/>
    <line x1="33.89" y1="50" x2="26.05" y2="48.44" stroke-opacity="0.8"/>
    <line x1="35.06" y1="46.15" x2="30.44" y2="44.24" stroke-opacity="0.61"/>
    <line x1="36.95" y1="42.61" x2="33.63" y2="40.39" stroke-opacity="0.55"/>
    <line x1="39.5" y1="39.5" x2="35.97" y2="35.97" stroke-opacity="0.61"/>
    <line x1="42.61" y1="36.95" x2="40.39" y2="33.63" stroke-opacity="0.55"/>
    <line x1="46.15" y1="35.06" x2="44.93" y2="32.1" stroke-opacity="0.5"/>
    <line x1="50" y1="33.89" x2="48.83" y2="28.01" stroke-opacity="0.67"/>
  </g>
  <path d="M49.5 45L64.5 54L49.5 63Z" fill="#fff" stroke="#fff" stroke-width="4" stroke-linejoin="round"/>
</svg>
